<svg version="1.1" xmlns="http://www.w3.org/2000/svg" xmlns:xlink="http://www.w3.org/1999/xlink" viewBox="0 0 512 512">
  <circle cx="254.652" cy="257.684" r="228.952" style="fill: rgb(255, 255, 255);"></circle>
  <path fill="#fbe3db" stroke="#fbe3db" d="M 225 0.84 C 67.521 20.296 -35.173 177.512 10.587 329.089 C 59.207 490.142 246.307 561.36 390.376 473.655 C 455.886 433.774 504.545 357.169 510.618 284.358 C 510.989 279.906 511.677 276.026 512.146 275.736 C 512.616 275.445 513 265.758 513 254.208 C 513 242.658 512.614 233.447 512.141 233.739 C 511.669 234.03 510.981 230.653 510.613 226.234 C 506.864 181.28 483.834 127.969 451.687 89.826 C 396.658 24.534 309.655 -9.618 225 0.84 M 207.836 188.323 C 195.82 190.489 192.729 202.874 202.764 208.648 C 207.196 211.198 216.804 211.198 221.236 208.648 C 234.6 200.959 224.311 185.353 207.836 188.323 M 287.836 188.323 C 275.82 190.489 272.729 202.874 282.764 208.648 C 287.196 211.198 296.804 211.198 301.236 208.648 C 314.6 200.959 304.311 185.353 287.836 188.323 M 206.174 193.64 C 201.208 198.927 204.87 207.326 212.14 207.326 C 216.756 207.326 220 203.966 220 199.186 C 220 192.086 211.019 188.483 206.174 193.64 M 286.174 193.64 C 281.208 198.927 284.87 207.326 292.14 207.326 C 296.756 207.326 300 203.966 300 199.186 C 300 192.086 291.019 188.483 286.174 193.64 M 0.425 255.326 C 0.425 267.151 0.569 271.989 0.746 266.076 C 0.923 260.163 0.923 250.488 0.746 244.576 C 0.569 238.664 0.425 243.501 0.425 255.326 M 193.156 384.264 C 188.017 387.518 183.691 390.633 183.293 390.699 C 180.872 391.099 211.449 432.639 219.897 443.945 C 221.447 446.019 221.803 445.733 236.719 430.445 L 251.958 414.826 L 266.89 430.326 C 276.974 440.793 282.157 445.501 282.851 444.826 C 283.416 444.276 292.237 431.948 302.454 417.43 C 319.261 393.548 320.861 390.919 319.265 389.822 C 318.294 389.155 313.818 386.312 309.319 383.504 L 301.138 378.398 L 301.706 381.902 C 303.278 391.59 286.653 398.111 258 399.046 C 222.147 400.216 197.944 392.213 202.139 380.576 C 202.585 379.338 202.849 378.331 202.725 378.337 C 202.601 378.343 198.295 381.011 193.156 384.264" fill-rule="evenodd"></path>
  <path fill="#e36c5c" d="M 234.327 0.321 C 67.578 15.503 -39.586 179.189 13.385 337.792 C 41.067 420.677 112.86 485.747 197.59 504.751 C 235.822 513.325 274.828 514.182 313.068 505.608 C 405.698 484.832 470.057 422.578 500 333.462 C 504.86 318.998 505.438 309.34 508.089 300 C 511.237 288.912 510.911 266.51 510.931 265.882 C 510.986 264.126 511.243 266.091 511.144 254.207 C 511.064 244.548 510.931 251.35 510.801 244.318 C 510.703 239.009 510.62 241.251 510.61 237.634 C 510.6 222.517 504.388 193.538 496.698 170.984 C 459.768 62.698 347.968 -10.025 234.327 0.321 M 174.648 125.321 C 163.812 133.845 158.608 161.849 150.811 194.691 L 147.455 208.825 L 147.391 188.075 C 147.346 173.312 147 167.325 146.193 167.325 C 142.953 167.325 136.754 170.051 134.211 172.595 L 131.327 175.479 L 131.327 202.882 C 131.327 237.119 132.596 241.196 143.817 243.017 C 147.282 243.579 147.327 243.65 147.327 248.549 C 147.327 280.393 172.884 324.09 202.809 343.41 C 207.423 346.388 211.226 349.206 211.262 349.672 C 211.298 350.137 209.483 356.367 207.23 363.514 L 202.962 378.21 L 193.49 384.064 C 187.906 387.658 183.631 390.27 183.159 390.7 C 182.687 391.13 185.367 397.145 190.569 404.483 C 195.772 411.821 208.285 429.477 218.377 443.718 L 236.726 469.61 L 238.541 465.338 C 240.085 461.702 239.576 461.34 238.952 459.945 C 237.95 457.706 230.184 440.965 229.327 439.057 C 229.041 438.421 234.266 432.867 240.304 426.848 L 251.28 415.906 L 254.398 418.865 C 256.113 420.493 261.108 425.747 265.497 430.539 L 273.478 439.254 L 268.399 449.435 C 265.841 455.082 263.699 460.095 263.099 460.466 C 262.325 460.944 262.391 462.111 263.328 464.483 C 265.284 469.435 265.851 469.706 267.828 466.626 C 268.808 465.086 274.438 457.075 280.338 448.825 C 291.428 433.301 319.058 393.536 320.138 391.78 C 320.478 391.232 316.068 388.751 310.138 384.51 L 300 378.067 L 295.128 363.276 L 290.558 349.505 L 298.658 344.23 C 329.708 324.006 355.328 280.142 355.328 247.194 C 355.328 243.799 355.618 243.325 357.678 243.325 C 360.978 243.325 366.338 239.457 368.768 235.322 C 371.908 229.988 371.958 176.787 368.828 173.33 C 366.418 170.658 362.938 168.805 358.578 167.866 L 355.328 167.166 L 355.238 188.996 C 355.138 213.231 355.608 213.203 349.828 189.325 C 343.398 162.699 336.747 141.161 326.857 130.476 C 320.587 123.707 319.208 122.628 302.148 126.266 C 271.118 132.883 231.618 132.851 199.982 126.184 C 184.583 122.939 180.343 117.573 177.343 119.932 M 36.195 204.739 C 34.636 206.299 33.724 233.658 36.253 205.388 C 38.782 177.118 38.298 219.987 34.848 204.016 C 31.398 188.045 23.104 211.366 34.149 203.282 C 45.194 195.198 36.605 204.901 38.165 203.342 C 39.724 201.782 37.433 206.327 37.433 204.714 C 37.433 203.101 38.376 203.605 36.817 202.045 C 35.257 200.486 34.414 205.472 32.801 205.472 C 31.188 205.472 34.386 205.876 32.826 207.435 M 35.353 208.108 C 30.516 212.945 27.202 205.978 33.98 205.978 C 37.559 205.978 38.611 207.62 38.611 204.041 C 38.611 200.462 38.906 208.167 35.327 208.167 C 33.714 208.167 20.07 192.401 32.657 205.413 M -0.288 255.325 C -0.288 262.2 -0.128 265.013 0.067 261.575 C 0.263 258.138 0.263 252.513 0.067 249.075 C -0.128 245.638 -0.288 248.45 -0.288 255.325 M 233.424 291.613 C 221.483 294.291 226.238 301.239 242.155 304.371 C 255.827 307.061 276.328 301.811 276.328 295.619 C 276.328 291.351 246.86 288.599 233.424 291.613" fill-rule="evenodd" style="stroke: rgb(227, 108, 92);"></path>
  <path d="M 230.5 69.067 C 182.373 72.168 155.249 87.453 149.469 114.73 C 147.727 122.952 146.098 218.024 147.836 210.911 C 158.074 169.027 167.287 142.298 179.297 129.536 L 185.5 122.944 L 193.511 124.9 C 229.29 133.634 281.79 134.022 315.195 125.074 C 320.535 123.644 318.855 124.954 322.053 127.393 C 332.943 135.699 341.754 158.664 349.545 190.5 C 351.16 197.1 354.271 208.342 354.811 210.542 C 356.529 217.539 356.281 122.991 354.56 114.869 C 347.167 79.99 304.638 64.289 230.5 69.067 M 209.465 192.961 C 201.848 196.014 203.844 207.333 212 207.333 C 220.695 207.333 221.964 194.928 213.5 192.677 C 212.4 192.385 210.584 192.512 209.465 192.961 M 289.465 192.961 C 281.848 196.014 283.844 207.333 292 207.333 C 296.051 207.335 299.335 204.051 299.333 200 C 299.333 194.989 293.963 191.158 289.465 192.961 M 130.5 406.706 C 103.55 414.735 81.367 421.407 81.204 421.532 C 81.041 421.657 80.178 425.731 79.287 430.585 L 77.726 439.263 L 84.583 445.736 C 176.236 529.533 318.335 535.032 416.343 456.847 C 424.405 450.415 425.129 451.346 421.761 438.722 L 418.5 425.513 L 371 408.779 C 344.875 399.575 320.35 391.53 319.793 391.726 C 319.236 391.921 305.737 410.345 290.619 431.845 C 275.501 453.344 264.924 464.886 264.645 464.904 C 263.464 464.981 262.626 461.997 263.145 460.911 C 263.835 459.467 273.32 440.183 274.127 438.346 C 274.391 437.744 268.57 431.832 262.646 425.926 L 251.815 414.626 L 236.963 430.119 L 228.719 439.109 L 233.522 449.355 C 239.346 461.121 239.318 460.378 239.55 461.203 C 239.945 462.608 240.854 459.708 239.011 463.72 L 236.481 469.143 L 218.347 443.844 C 183.584 394.566 184.078 390.986 183.049 391.039 C 182.486 391.069 157.45 398.676 130.5 406.706" fill-rule="evenodd" style="fill: rgb(11, 60, 89); fill-rule: evenodd; stroke: rgb(11, 60, 89);"></path>
  <circle cx="49.787" cy="209.48" r="31.765" style="fill: rgb(227, 108, 92);"></circle>
</svg>