<?xml version="1.0" encoding="iso-8859-1"?>
<!DOCTYPE svg PUBLIC "-//W3C//DTD SVG 1.1//EN" "http://www.w3.org/Graphics/SVG/1.1/DTD/svg11.dtd">
<svg fill="#000000" height="8px" width="8px" version="1.1" id="Capa_1" xmlns="http://www.w3.org/2000/svg" xmlns:xlink="http://www.w3.org/1999/xlink" 
	 viewBox="0 0 350 350" xml:space="preserve">
<path d="M313.652,94.664h-74.311l31.23-21.644c3.668,2.214,7.962,3.491,12.55,3.491c13.43,0,24.355-10.926,24.355-24.355
	S296.552,27.8,283.122,27.8s-24.355,10.926-24.355,24.355c0,1.513,0.146,2.991,0.411,4.428l-54.58,37.827
	c-0.115,0.08-0.219,0.17-0.33,0.254h-58.535c-0.111-0.084-0.215-0.174-0.33-0.254L90.823,56.584
	c0.266-1.438,0.411-2.916,0.411-4.429c0-13.43-10.926-24.355-24.356-24.355c-13.431,0-24.356,10.926-24.356,24.355
	s10.926,24.355,24.356,24.355c4.588,0,8.882-1.276,12.55-3.49l31.231,21.644H36.348C16.306,94.664,0,110.97,0,131.012v10.661
	c0,15.997,10.584,29.857,25.268,34.589l8.786,74.126c5.091,42.953,35.162,71.811,74.828,71.811h126.236
	c27.344,0,47.19-6.916,60.677-21.144c11.029-11.636,17.433-27.736,20.152-50.668l8.783-74.126
	C339.416,171.53,350,157.67,350,141.673v-10.661C350,110.97,333.694,94.664,313.652,94.664z M128.104,251.672
	c0,5.523-4.478,10-10,10c-5.522,0-10-4.477-10-10v-43.24c0-5.523,4.478-10,10-10c5.522,0,10,4.477,10,10V251.672z M185,251.672
	c0,5.523-4.477,10-10,10s-10-4.477-10-10v-43.24c0-5.523,4.477-10,10-10s10,4.477,10,10V251.672z M241.896,251.672
	c0,5.523-4.478,10-10,10c-5.523,0-10-4.477-10-10v-43.24c0-5.523,4.477-10,10-10c5.522,0,10,4.477,10,10V251.672z M330,141.673
	c0,8.412-6.516,15.499-14.874,16.248H34.873C26.516,157.172,20,150.085,20,141.673v-10.661c0-9.014,7.334-16.348,16.348-16.348
	h277.305c9.014,0,16.348,7.333,16.348,16.348V141.673z"/>
</svg>
